<svg width="32" height="32" viewBox="0 0 32 32" fill="none" xmlns="http://www.w3.org/2000/svg">
<path d="M19 29L16 25.999L19 23" stroke="#252B42" stroke-width="2" stroke-linecap="round" stroke-linejoin="round"/>
<path d="M24.3283 9.39893L23.2295 13.4976L19.1322 12.3989" stroke="#252B42" stroke-width="2" stroke-linecap="round" stroke-linejoin="round"/>
<path d="M9.86947 17.5961L8.77047 13.4976L4.67322 14.5961" stroke="#252B42" stroke-width="2" stroke-linecap="round" stroke-linejoin="round"/>
<path d="M16 25.999H26.997C27.3483 25.999 27.6934 25.9065 27.9975 25.7308C28.3017 25.555 28.5542 25.3023 28.7296 24.998C28.9051 24.6937 28.9973 24.3486 28.997 23.9973C28.9967 23.6461 28.9039 23.3011 28.728 22.9971L25.7341 17.8247" stroke="#252B42" stroke-width="2" stroke-linecap="round" stroke-linejoin="round"/>
<path d="M8.7705 13.4976L3.27198 22.9971C3.09602 23.3011 3.00322 23.6461 3.00293 23.9973C3.00264 24.3486 3.09487 24.6937 3.27033 24.998C3.44579 25.3023 3.6983 25.5551 4.00246 25.7308C4.30661 25.9065 4.65167 25.999 5.00294 25.999H11" stroke="#252B42" stroke-width="2" stroke-linecap="round" stroke-linejoin="round"/>
<path d="M23.2294 13.4976L17.7309 3.99809C17.5552 3.69457 17.3028 3.44258 16.999 3.2674C16.6952 3.09222 16.3507 3 16 3C15.6493 3 15.3047 3.09222 15.0009 3.2674C14.6971 3.44258 14.4447 3.69457 14.269 3.99809L11.2753 9.17025" stroke="#252B42" stroke-width="2" stroke-linecap="round" stroke-linejoin="round"/>
</svg>
