<svg width="38" height="36" viewBox="0 0 38 36" fill="none" xmlns="http://www.w3.org/2000/svg">
<path d="M8.98975 12.6938L1.48975 12.6938L1.48975 5.19385" stroke="#333333" stroke-opacity="0.75" stroke-width="2" stroke-linecap="round" stroke-linejoin="round"/>
<path d="M7.8651 29.6625C10.1721 31.9714 13.1121 33.5442 16.3132 34.182C19.5142 34.8197 22.8325 34.4938 25.8483 33.2453C28.864 31.9969 31.4418 29.882 33.2554 27.1683C35.0691 24.4546 36.0371 21.264 36.0371 18C36.0371 14.736 35.0691 11.5454 33.2554 8.8317C31.4418 6.118 28.864 4.00316 25.8483 2.75471C22.8325 1.50626 19.5142 1.18029 16.3132 1.81804C13.1121 2.45579 10.1721 4.0286 7.86509 6.33751L1.49009 12.6938" stroke="#333333" stroke-opacity="0.75" stroke-width="2" stroke-linecap="round" stroke-linejoin="round"/>
</svg>
