<svg width="28" height="28" viewBox="0 0 28 28" fill="none" xmlns="http://www.w3.org/2000/svg">
<path d="M26.3034 26.8511L26.3024 26.8516C26.1137 26.9511 25.9002 27.0027 25.6826 26.9999L25.6826 26.9998H25.6699H18.6616C18.6089 26.9998 18.5636 26.9792 18.5342 26.9506C18.5058 26.923 18.495 26.8913 18.495 26.864V20.0483C18.495 19.4731 18.26 18.927 17.8508 18.5286C17.4426 18.1312 16.8944 17.9125 16.3283 17.9125H11.6617C11.0955 17.9125 10.5474 18.1312 10.1391 18.5286C9.72996 18.927 9.49499 19.473 9.49499 20.0483V26.864C9.49499 26.8913 9.48413 26.923 9.45572 26.9506C9.4264 26.9792 9.38106 26.9998 9.32833 26.9998L2.33377 26.9998L2.33127 26.9998C2.13898 27.0003 1.94955 26.9607 1.77595 26.8846C1.60378 26.809 1.45209 26.6997 1.3299 26.5654C1.11128 26.3177 0.996371 26.0056 1.00009 25.6881L1.00016 25.6881V25.6764V12.6017C1.00035 12.4285 1.03759 12.2563 1.1104 12.0961C1.18324 11.9358 1.29051 11.79 1.42694 11.6689C1.42705 11.6688 1.42717 11.6687 1.42728 11.6686L13.0923 1.34294L13.095 1.3405C13.3379 1.1239 13.6602 1.00003 13.9992 1C14.3381 0.999969 14.6604 1.12379 14.9034 1.34035L14.906 1.34269L26.5728 11.6686C26.573 11.6688 26.5732 11.6689 26.5734 11.6691C26.7097 11.7902 26.8169 11.9359 26.8897 12.0962C26.9626 12.2566 26.9998 12.4289 27 12.6023V25.7277C26.9998 25.9537 26.937 26.1771 26.8159 26.3747C26.6946 26.5725 26.5185 26.7381 26.3034 26.8511Z" stroke="#787878" stroke-width="2"/>
</svg>
