<svg width="24" height="24" viewBox="0 0 24 24" fill="none" xmlns="http://www.w3.org/2000/svg">
<path d="M22.4793 22.8888L22.4783 22.8893C22.3378 22.9633 22.1783 23.002 22.0154 22.9999V22.9998H22.0028H15.9957L15.9957 17.1842C15.9957 16.652 15.7783 16.1472 15.4003 15.7793C15.0233 15.4123 14.5176 15.2107 13.9957 15.2107H9.9957C9.47379 15.2107 8.96804 15.4123 8.59104 15.7793C8.21312 16.1472 7.99571 16.652 7.99571 17.1842L7.99571 22.9998L2.00037 22.9998L1.99788 22.9998C1.85284 23.0002 1.71015 22.9703 1.57964 22.9131C1.45055 22.8565 1.33728 22.7748 1.2463 22.675C1.08249 22.489 0.997303 22.256 1.00007 22.0201L1.00013 22.0201V22.0084V10.8016C1.00029 10.6735 1.02781 10.5461 1.08184 10.4272C1.13592 10.3081 1.21581 10.1993 1.31798 10.1087C1.31804 10.1087 1.3181 10.1086 1.31816 10.1086L11.3166 1.25806L11.3194 1.25562C11.5011 1.09361 11.7434 1.00002 11.9993 1C12.2552 0.999977 12.4976 1.09352 12.6793 1.25551L12.6819 1.25786L22.6819 10.1085C22.6822 10.1087 22.6824 10.1089 22.6826 10.1091C22.7846 10.1997 22.8643 10.3084 22.9183 10.4273C22.9724 10.5463 22.9999 10.6739 23 10.8021V22.0522C22.9999 22.2194 22.9535 22.3851 22.8633 22.5322C22.7729 22.6795 22.6412 22.8037 22.4793 22.8888ZM15.9957 23.0263L15.9957 23.0255C15.9957 23.0258 15.9957 23.026 15.9957 23.0263ZM7.99571 23.0263C7.99571 23.026 7.99571 23.0258 7.99571 23.0255L7.99571 23.0263Z" stroke="#66DB3B" stroke-width="2"/>
</svg>
