<svg width="24" height="24" viewBox="0 0 24 24" fill="none" xmlns="http://www.w3.org/2000/svg">
<path d="M8.25 21.75H15.75" stroke="#787878" stroke-linecap="round" stroke-linejoin="round"/>
<path d="M7.37808 15.6564C6.4852 14.9621 5.76204 14.0738 5.26338 13.0586C4.76473 12.0434 4.50366 10.9281 4.49996 9.79703C4.48121 5.72828 7.75308 2.3439 11.8218 2.25015C13.3965 2.21283 14.943 2.67222 16.2419 3.56318C17.5408 4.45415 18.5263 5.73146 19.0585 7.21395C19.5907 8.69644 19.6426 10.3089 19.207 11.8225C18.7713 13.3362 17.8701 14.6743 16.6312 15.647C16.3575 15.8586 16.1359 16.1299 15.9831 16.4402C15.8304 16.7506 15.7506 17.0918 15.75 17.4377V18.0002C15.75 18.1991 15.6709 18.3898 15.5303 18.5305C15.3896 18.6711 15.1989 18.7502 15 18.7502H8.99996C8.80105 18.7502 8.61028 18.6711 8.46963 18.5305C8.32898 18.3898 8.24996 18.1991 8.24996 18.0002V17.4377C8.24761 17.0944 8.16802 16.756 8.01709 16.4476C7.86616 16.1393 7.64776 15.8689 7.37808 15.6564V15.6564Z" stroke="#787878" stroke-linecap="round" stroke-linejoin="round"/>
<path d="M12.7594 5.32422C13.6761 5.47961 14.5219 5.91569 15.1802 6.57228C15.8384 7.22886 16.2767 8.07358 16.4344 8.98984" stroke="#787878" stroke-linecap="round" stroke-linejoin="round"/>
</svg>
