<svg width="21" height="25" viewBox="0 0 21 25" fill="none" xmlns="http://www.w3.org/2000/svg">
<path d="M17.5333 13.282C17.504 10.1207 20.1976 8.60306 20.3195 8.52906C18.8037 6.38009 16.4448 6.08569 15.6032 6.05106C13.5968 5.85426 11.6863 7.1956 10.6693 7.1956C9.6523 7.1956 8.07967 6.0794 6.41607 6.11088C4.2261 6.14237 2.20995 7.34359 1.08247 9.24224C-1.19036 13.0632 0.50249 18.7261 2.71521 21.8275C3.79882 23.3436 5.08876 25.0518 6.78485 24.9888C8.41921 24.9258 9.03657 23.9655 11.0088 23.9655C12.9811 23.9655 13.5367 24.9888 15.2637 24.9589C17.0199 24.9258 18.1344 23.4097 19.2099 21.8889C20.4511 20.1288 20.9645 18.4254 20.9937 18.3356C20.9547 18.3199 17.569 17.062 17.5333 13.282Z" fill="#252B42"/>
<path d="M14.2897 3.99935C15.1897 2.94297 15.7973 1.47409 15.6299 0.0100098C14.3334 0.0604432 12.7641 0.847576 11.8332 1.90396C10.9998 2.83758 10.2687 4.33316 10.4668 5.76744C11.9128 5.87607 13.3895 5.05418 14.2897 3.99935Z" fill="#252B42"/>
</svg>
