<svg width="24" height="24" viewBox="0 0 24 24" fill="none" xmlns="http://www.w3.org/2000/svg">
<path d="M18.8212 16.5V6.00002C18.8224 5.7042 18.7664 5.41106 18.6563 5.13752C18.5462 4.86397 18.3843 4.61544 18.1799 4.40626C17.9755 4.19708 17.7326 4.0314 17.4653 3.91876C17.198 3.80613 16.9116 3.74878 16.6225 3.75002H4.16309" stroke="black" stroke-linecap="round" stroke-linejoin="round"/>
<path d="M10.0264 9.75H15.8896" stroke="black" stroke-linecap="round" stroke-linejoin="round"/>
<path d="M10.0264 12.75H15.8896" stroke="black" stroke-linecap="round" stroke-linejoin="round"/>
<path d="M2.5232 7.50075C2.28586 7.22882 2.11666 6.90194 2.03015 6.54826C1.94364 6.19457 1.94242 5.82467 2.0266 5.47039C2.11077 5.11611 2.27782 4.78807 2.51335 4.51451C2.74889 4.24095 3.04586 4.03006 3.37871 3.89999C3.71156 3.76993 4.0703 3.72458 4.42407 3.76786C4.77784 3.81114 5.11603 3.94175 5.40954 4.14844C5.70304 4.35514 5.94307 4.63172 6.10895 4.95439C6.27483 5.27706 6.3616 5.63615 6.36179 6.00075V18.0008C6.36198 18.3653 6.44875 18.7244 6.61463 19.0471C6.78052 19.3698 7.02054 19.6464 7.31404 19.8531C7.60755 20.0598 7.94574 20.1904 8.29951 20.2336C8.65328 20.2769 9.01203 20.2316 9.34487 20.1015C9.67772 19.9714 9.97469 19.7606 10.2102 19.487C10.4458 19.2134 10.6128 18.8854 10.697 18.5311C10.7812 18.1768 10.7799 17.8069 10.6934 17.4532C10.6069 17.0996 10.4377 16.7727 10.2004 16.5008H20.4611C20.7441 16.8246 20.9295 17.2253 20.9948 17.6546C21.0601 18.0838 21.0026 18.5233 20.8292 18.9198C20.6558 19.3163 20.3739 19.653 20.0176 19.8892C19.6612 20.1254 19.2457 20.251 18.8212 20.2508H8.56051" stroke="black" stroke-linecap="round" stroke-linejoin="round"/>
</svg>
