<svg width="24" height="17" viewBox="0 0 24 17" fill="none" xmlns="http://www.w3.org/2000/svg">
<path d="M21.1667 15.4H2.83333C2.3471 15.4 1.88079 15.2555 1.53697 14.9983C1.19315 14.7411 1 14.3923 1 14.0286V4.42858C1 4.06485 1.19315 3.71602 1.53697 3.45883C1.88079 3.20164 2.3471 3.05715 2.83333 3.05715H6.49933L8.33266 1H15.666L17.4993 3.05715H21.1667C21.6529 3.05715 22.1192 3.20164 22.463 3.45883C22.8068 3.71602 23 4.06485 23 4.42858V14.0286C23 14.3923 22.8068 14.7411 22.463 14.9983C22.1192 15.2555 21.6529 15.4 21.1667 15.4Z" stroke="#E7ECFF" stroke-width="2" stroke-linecap="round" stroke-linejoin="round"/>
<path d="M11.9999 11.5598C13.3499 11.5598 14.4443 10.4853 14.4443 9.15977C14.4443 7.83428 13.3499 6.75977 11.9999 6.75977C10.6498 6.75977 9.55542 7.83428 9.55542 9.15977C9.55542 10.4853 10.6498 11.5598 11.9999 11.5598Z" stroke="#E7ECFF" stroke-width="2" stroke-linecap="round" stroke-linejoin="round"/>
</svg>
