<svg width="32" height="32" viewBox="0 0 32 32" fill="none" xmlns="http://www.w3.org/2000/svg">
<path d="M12 22H3.75C3.55109 22 3.36032 21.921 3.21967 21.7803C3.07902 21.6397 3 21.4489 3 21.25V13C3 10.6131 3.94821 8.32387 5.63604 6.63604C7.32387 4.94821 9.61305 4 12 4V4C14.3869 4 16.6761 4.94821 18.364 6.63604C20.0518 8.32387 21 10.6131 21 13V13C21 15.3869 20.0518 17.6761 18.364 19.364C16.6761 21.0518 14.3869 22 12 22V22Z" stroke="#252B42" stroke-width="2" stroke-linecap="round" stroke-linejoin="round"/>
<path d="M11.5125 21.9992C12.133 23.7543 13.2825 25.2738 14.8025 26.3483C16.3226 27.4229 18.1385 27.9997 20 27.9992H28.25C28.4489 27.9992 28.6397 27.9202 28.7803 27.7795C28.921 27.6389 29 27.4481 29 27.2492V18.9992C29.0032 16.6956 28.1218 14.4788 26.5377 12.8063C24.9536 11.1338 22.7879 10.1335 20.4875 10.0117" stroke="#252B42" stroke-width="2" stroke-linecap="round" stroke-linejoin="round"/>
</svg>
