<svg width="18" height="15" viewBox="0 0 18 15" fill="none" xmlns="http://www.w3.org/2000/svg">
<path d="M17.3203 2.5C17.3203 2.03125 17.151 1.64062 16.8125 1.32812C16.5 0.989583 16.1224 0.820312 15.6797 0.820312H2.32031C1.8776 0.820312 1.48698 0.989583 1.14844 1.32812C0.835938 1.64062 0.679688 2.03125 0.679688 2.5V12.5C0.679688 12.9688 0.835938 13.3724 1.14844 13.7109C1.48698 14.0234 1.8776 14.1797 2.32031 14.1797H15.6797C16.1224 14.1797 16.5 14.0234 16.8125 13.7109C17.151 13.3724 17.3203 12.9688 17.3203 12.5V2.5ZM15.6797 2.5L9 6.67969L2.32031 2.5H15.6797ZM15.6797 12.5H2.32031V4.17969L9 8.32031L15.6797 4.17969V12.5Z" fill="#5A6684"/>
</svg>
