<svg width="23" height="22" viewBox="0 0 23 22" fill="none" xmlns="http://www.w3.org/2000/svg">
<path d="M4.19739 3.4375L17.9074 18.5625" stroke="black" stroke-linecap="round" stroke-linejoin="round"/>
<path d="M13.3574 13.5445C12.7284 14.1224 11.9054 14.4415 11.0524 14.4383C10.3606 14.4382 9.68503 14.2282 9.11448 13.8358C8.54393 13.4435 8.10511 12.8872 7.85572 12.24C7.60633 11.5929 7.55803 10.8852 7.71718 10.21C7.87632 9.53478 8.23547 8.92369 8.74739 8.45703" stroke="black" stroke-linecap="round" stroke-linejoin="round"/>
<path d="M6.4252 5.89453C2.92915 7.66484 1.45532 10.9992 1.45532 10.9992C1.45532 10.9992 4.19732 17.1867 11.0523 17.1867C12.6586 17.1999 14.2448 16.8286 15.6794 16.1039" stroke="black" stroke-linecap="round" stroke-linejoin="round"/>
<path d="M17.9587 14.5321C19.8267 12.8563 20.6493 11 20.6493 11C20.6493 11 17.9073 4.81252 11.0523 4.81252C10.458 4.81134 9.86469 4.86021 9.27856 4.95861" stroke="black" stroke-linecap="round" stroke-linejoin="round"/>
<path d="M11.6951 7.62305C12.424 7.76156 13.0882 8.13409 13.5874 8.68441C14.0867 9.23474 14.3939 9.93301 14.4628 10.6738" stroke="black" stroke-linecap="round" stroke-linejoin="round"/>
</svg>
