<svg width="21" height="22" viewBox="0 0 21 22" fill="none" xmlns="http://www.w3.org/2000/svg">
<g clip-path="url(#clip0_2_1147)">
<path d="M21.0002 11.2526C21.0002 10.5049 20.9411 9.75308 20.8152 9.01746H10.7108V13.2534H16.4971C16.257 14.6195 15.4854 15.828 14.3557 16.596V19.3445H17.8078C19.835 17.4286 21.0002 14.5993 21.0002 11.2526Z" fill="#4285F4"/>
<path d="M10.7109 21.9999C13.6001 21.9999 16.0367 21.0258 17.8119 19.3444L14.3598 16.5959C13.3994 17.2669 12.1594 17.6468 10.7148 17.6468C7.92007 17.6468 5.55044 15.7108 4.7002 13.1078H1.13788V15.9412C2.95643 19.6556 6.66046 21.9999 10.7109 21.9999Z" fill="#34A853"/>
<path d="M4.69644 13.1079C4.24771 11.7417 4.24771 10.2624 4.69644 8.89623V6.06287H1.13805C-0.381345 9.17108 -0.381345 12.833 1.13805 15.9412L4.69644 13.1079Z" fill="#FBBC04"/>
<path d="M10.7109 4.35325C12.2382 4.32899 13.7143 4.91911 14.8204 6.00234L17.8788 2.86179C15.9422 0.994436 13.3718 -0.0322042 10.7109 0.000130926C6.66047 0.000130926 2.95644 2.34443 1.13788 6.06296L4.69627 8.89633C5.54256 6.28931 7.91614 4.35325 10.7109 4.35325Z" fill="#EA4335"/>
</g>
<defs>
<clipPath id="clip0_2_1147">
<rect width="21" height="22" fill="white"/>
</clipPath>
</defs>
</svg>
