<svg width="28" height="28" viewBox="0 0 28 28" fill="none" xmlns="http://www.w3.org/2000/svg">
<path d="M14.4375 23.6241H5.21354C4.99115 23.6241 4.77786 23.5358 4.6206 23.3785C4.46335 23.2213 4.375 23.008 4.375 22.7856V13.5616C4.375 12.2402 4.63527 10.9317 5.14096 9.71088C5.64665 8.49004 6.38784 7.38077 7.32223 6.44638C8.25662 5.51199 9.3659 4.77079 10.5867 4.26511C11.8076 3.75942 13.1161 3.49915 14.4375 3.49915H14.4375C15.7589 3.49915 17.0674 3.75942 18.2883 4.26511C19.5091 4.7708 20.6184 5.51199 21.5528 6.44638C22.4872 7.38077 23.2283 8.49006 23.734 9.71089C24.2397 10.9317 24.5 12.2402 24.5 13.5616V13.5617C24.5 16.2304 23.4398 18.7898 21.5528 20.6769C19.6657 22.564 17.1063 23.6241 14.4375 23.6241Z" stroke="#787878" stroke-width="2" stroke-linecap="round" stroke-linejoin="round"/>
<path d="M14.4375 15.3125C15.1624 15.3125 15.75 14.7249 15.75 14C15.75 13.2751 15.1624 12.6875 14.4375 12.6875C13.7126 12.6875 13.125 13.2751 13.125 14C13.125 14.7249 13.7126 15.3125 14.4375 15.3125Z" fill="#787878"/>
<path d="M9.1875 15.3125C9.91237 15.3125 10.5 14.7249 10.5 14C10.5 13.2751 9.91237 12.6875 9.1875 12.6875C8.46263 12.6875 7.875 13.2751 7.875 14C7.875 14.7249 8.46263 15.3125 9.1875 15.3125Z" fill="#787878"/>
<path d="M19.6875 15.3125C20.4124 15.3125 21 14.7249 21 14C21 13.2751 20.4124 12.6875 19.6875 12.6875C18.9626 12.6875 18.375 13.2751 18.375 14C18.375 14.7249 18.9626 15.3125 19.6875 15.3125Z" fill="#787878"/>
</svg>
