<svg width="22" height="22" viewBox="0 0 22 22" fill="none" xmlns="http://www.w3.org/2000/svg">
<path d="M17.8289 7.5625H4.11885C3.74026 7.5625 3.43335 7.8703 3.43335 8.25V17.875C3.43335 18.2547 3.74026 18.5625 4.11885 18.5625H17.8289C18.2075 18.5625 18.5144 18.2547 18.5144 17.875V8.25C18.5144 7.8703 18.2075 7.5625 17.8289 7.5625Z" stroke="black" stroke-linecap="round" stroke-linejoin="round"/>
<path d="M7.88916 7.5625V4.46875C7.88916 3.64824 8.21416 2.86133 8.79266 2.28114C9.37117 1.70095 10.1558 1.375 10.9739 1.375C11.792 1.375 12.5767 1.70095 13.1552 2.28114C13.7337 2.86133 14.0587 3.64824 14.0587 4.46875V7.5625" stroke="black" stroke-linecap="round" stroke-linejoin="round"/>
</svg>
