<svg width="32" height="32" viewBox="0 0 32 32" fill="none" xmlns="http://www.w3.org/2000/svg">
<path d="M12 28H20" stroke="#252B42" stroke-width="2" stroke-linecap="round" stroke-linejoin="round"/>
<path d="M7.02535 12.9999C7.02369 11.8139 7.25679 10.6393 7.7112 9.54386C8.16561 8.44838 8.83235 7.45367 9.67299 6.61707C10.5136 5.78047 11.5115 5.11852 12.6092 4.66938C13.7069 4.22025 14.8825 3.99281 16.0685 4.00017C21.0172 4.03696 24.9756 8.15034 24.9756 13.1129V13.9999C24.9756 18.4769 25.9122 21.0748 26.7372 22.4947C26.8261 22.6464 26.8734 22.8189 26.8743 22.9947C26.8752 23.1705 26.8298 23.3435 26.7426 23.4962C26.6553 23.6488 26.5294 23.7758 26.3774 23.8642C26.2254 23.9527 26.0528 23.9995 25.877 23.9999H6.12292C5.94707 23.9995 5.77445 23.9526 5.62248 23.8642C5.4705 23.7757 5.34454 23.6487 5.25731 23.496C5.17008 23.3434 5.12465 23.1704 5.12563 22.9945C5.1266 22.8187 5.17393 22.6462 5.26284 22.4945C6.08825 21.0745 7.02534 18.4766 7.02534 13.9999L7.02535 12.9999Z" stroke="#252B42" stroke-width="2" stroke-linecap="round" stroke-linejoin="round"/>
</svg>
