<svg width="28" height="28" viewBox="0 0 28 28" fill="none" xmlns="http://www.w3.org/2000/svg">
<path d="M9.625 17.5C12.7661 17.5 15.3125 14.9536 15.3125 11.8125C15.3125 8.67138 12.7661 6.125 9.625 6.125C6.48388 6.125 3.9375 8.67138 3.9375 11.8125C3.9375 14.9536 6.48388 17.5 9.625 17.5Z" stroke="#787878" stroke-width="2" stroke-miterlimit="10"/>
<path d="M16.9982 6.33694C17.7804 6.11654 18.6009 6.06633 19.4042 6.18969C20.2075 6.31306 20.975 6.60714 21.6551 7.05212C22.3352 7.49711 22.912 8.08266 23.3468 8.76935C23.7815 9.45604 24.064 10.2279 24.1753 11.033C24.2866 11.8381 24.2241 12.6576 23.992 13.4365C23.7598 14.2154 23.3635 14.9355 22.8297 15.5483C22.2958 16.1611 21.6368 16.6524 20.8971 16.9891C20.1574 17.3257 19.3541 17.5 18.5414 17.5001" stroke="#787878" stroke-width="2" stroke-linecap="round" stroke-linejoin="round"/>
<path d="M1.74951 21.5903C2.63778 20.3268 3.81702 19.2955 5.18766 18.5836C6.5583 17.8717 8.08011 17.5001 9.6246 17.5C11.1691 17.4999 12.6909 17.8715 14.0616 18.5833C15.4323 19.2951 16.6116 20.3262 17.5 21.5897" stroke="#787878" stroke-width="2" stroke-linecap="round" stroke-linejoin="round"/>
<path d="M18.5415 17.5C20.0861 17.4989 21.6083 17.87 22.9791 18.5819C24.3499 19.2938 25.529 20.3255 26.4165 21.5897" stroke="#787878" stroke-width="2" stroke-linecap="round" stroke-linejoin="round"/>
</svg>
