<svg width="18" height="20" viewBox="0 0 18 20" fill="none" xmlns="http://www.w3.org/2000/svg">
<path d="M12.6754 19H1.92465C1.72099 19 1.52567 18.921 1.38165 18.7803C1.23764 18.6397 1.15674 18.4489 1.15674 18.25V4.75C1.15674 4.55109 1.23764 4.36032 1.38165 4.21967C1.52567 4.07902 1.72099 4 1.92465 4H9.60375L13.4433 7.75V18.25C13.4433 18.4489 13.3624 18.6397 13.2184 18.7803C13.0744 18.921 12.8791 19 12.6754 19Z" stroke="#252B42" stroke-linecap="round" stroke-linejoin="round"/>
<path d="M4.22839 4V1.75C4.22839 1.55109 4.3093 1.36032 4.45331 1.21967C4.59732 1.07902 4.79264 1 4.9963 1H12.6754L16.515 4.75V15.25C16.515 15.4489 16.4341 15.6397 16.29 15.7803C16.146 15.921 15.9507 16 15.747 16H13.4433" stroke="#252B42" stroke-linecap="round" stroke-linejoin="round"/>
<path d="M4.99622 12.25H9.60368" stroke="#252B42" stroke-linecap="round" stroke-linejoin="round"/>
<path d="M4.99622 15.25H9.60368" stroke="#252B42" stroke-linecap="round" stroke-linejoin="round"/>
</svg>
