<svg width="22" height="22" viewBox="0 0 22 22" fill="none" xmlns="http://www.w3.org/2000/svg">
<path d="M11.2973 0.976318C9.25598 0.976318 7.26053 1.58163 5.56326 2.71571C3.86599 3.84979 2.54313 5.4617 1.76196 7.34761C0.98079 9.23351 0.776401 11.3087 1.17464 13.3108C1.57287 15.3128 2.55585 17.1519 3.99926 18.5953C5.44267 20.0387 7.28168 21.0217 9.28375 21.4199C11.2858 21.8181 13.361 21.6137 15.2469 20.8326C17.1328 20.0514 18.7447 18.7285 19.8788 17.0313C21.0129 15.334 21.6182 13.3386 21.6182 11.2973C21.6151 8.56095 20.5267 5.9376 18.5918 4.00273C16.6569 2.06786 14.0336 0.97947 11.2973 0.976318ZM15.0342 13.9116C15.1101 13.9849 15.1706 14.0725 15.2122 14.1693C15.2538 14.2662 15.2757 14.3704 15.2766 14.4758C15.2775 14.5812 15.2574 14.6858 15.2175 14.7833C15.1776 14.8809 15.1186 14.9695 15.0441 15.0441C14.9695 15.1186 14.8809 15.1776 14.7833 15.2175C14.6858 15.2574 14.5812 15.2775 14.4758 15.2766C14.3704 15.2757 14.2662 15.2538 14.1693 15.2122C14.0725 15.1705 13.9849 15.1101 13.9116 15.0342L11.2973 12.4199L8.68289 15.0342C8.53316 15.1789 8.33261 15.2589 8.12445 15.2571C7.91629 15.2553 7.71716 15.1718 7.56996 15.0246C7.42276 14.8774 7.33927 14.6782 7.33746 14.4701C7.33565 14.2619 7.41567 14.0614 7.56029 13.9116L10.1747 11.2973L7.56029 8.68289C7.41567 8.53315 7.33565 8.33261 7.33746 8.12445C7.33927 7.91628 7.42276 7.71716 7.56996 7.56996C7.71716 7.42276 7.91629 7.33926 8.12445 7.33746C8.33261 7.33565 8.53316 7.41567 8.68289 7.56029L11.2973 10.1747L13.9116 7.56029C14.0614 7.41567 14.2619 7.33565 14.4701 7.33746C14.6782 7.33926 14.8774 7.42276 15.0246 7.56996C15.1718 7.71716 15.2553 7.91628 15.2571 8.12445C15.2589 8.33261 15.1789 8.53315 15.0342 8.68289L12.4199 11.2973L15.0342 13.9116Z" fill="#C7C7CC"/>
</svg>
