<svg width="32" height="32" viewBox="0 0 32 32" fill="none" xmlns="http://www.w3.org/2000/svg">
<path d="M26.2875 4.48697L2.9875 11.0495C2.78915 11.1037 2.61235 11.2177 2.48117 11.3761C2.34999 11.5344 2.2708 11.7294 2.25441 11.9343C2.23801 12.1393 2.28519 12.3443 2.38953 12.5215C2.49388 12.6987 2.6503 12.8394 2.8375 12.9245L13.5375 17.987C13.7471 18.084 13.9154 18.2524 14.0125 18.462L19.075 29.162C19.1601 29.3492 19.3008 29.5056 19.478 29.6099C19.6551 29.7143 19.8602 29.7615 20.0651 29.7451C20.2701 29.7287 20.465 29.6495 20.6234 29.5183C20.7817 29.3871 20.8958 29.2103 20.95 29.012L27.5125 5.71197C27.5622 5.54194 27.5653 5.36167 27.5214 5.19004C27.4775 5.01842 27.3882 4.86176 27.263 4.7365C27.1377 4.61123 26.9811 4.52197 26.8094 4.47807C26.6378 4.43417 26.4575 4.43724 26.2875 4.48697V4.48697Z" stroke="black" stroke-width="2" stroke-linecap="round" stroke-linejoin="round"/>
<path d="M13.8625 18.1383L19.5125 12.4883" stroke="black" stroke-width="2" stroke-linecap="round" stroke-linejoin="round"/>
</svg>
