<svg width="19" height="19" viewBox="0 0 19 19" fill="none" xmlns="http://www.w3.org/2000/svg">
<path d="M5.1154 5.71098C5.00992 5.60549 4.95066 5.46242 4.95066 5.31324C4.95066 5.16406 5.00992 5.021 5.1154 4.91551L9.0529 0.978944C9.06228 0.969757 9.07306 0.963194 9.08281 0.954663C9.0905 0.948007 9.09837 0.941538 9.10653 0.93535C9.12944 0.917367 9.15373 0.901223 9.17918 0.887069C9.18237 0.885194 9.18556 0.883694 9.18884 0.881913C9.21894 0.865916 9.25044 0.852734 9.28296 0.842538L9.28418 0.842163C9.39263 0.808472 9.50874 0.808472 9.61718 0.842163L9.6184 0.842538C9.65092 0.852734 9.68243 0.865916 9.71253 0.881913C9.71581 0.883601 9.71909 0.885288 9.72218 0.887069C9.74764 0.901223 9.77193 0.917367 9.79484 0.93535C9.803 0.941632 9.81087 0.948007 9.81856 0.954757C9.82831 0.963194 9.83909 0.969757 9.84837 0.979038L13.7859 4.9156C13.889 5.02156 13.9463 5.16386 13.9453 5.31172C13.9443 5.45958 13.8851 5.6011 13.7806 5.70566C13.676 5.81022 13.5345 5.86941 13.3866 5.87042C13.2388 5.87144 13.0965 5.81419 12.9905 5.71107L10.0132 2.73451V11.8768C10.0132 12.026 9.95392 12.1691 9.84843 12.2746C9.74294 12.3801 9.59987 12.4393 9.45068 12.4393C9.3015 12.4393 9.15843 12.3801 9.05294 12.2746C8.94745 12.1691 8.88818 12.026 8.88818 11.8768V2.7346L5.91087 5.71116C5.80533 5.81657 5.66226 5.87577 5.5131 5.87573C5.36393 5.8757 5.22089 5.81644 5.1154 5.71098ZM17.7007 11.3143C17.5515 11.3143 17.4084 11.3736 17.3029 11.4791C17.1974 11.5846 17.1382 11.7276 17.1382 11.8768V17.1268C17.1381 17.1765 17.1183 17.2242 17.0832 17.2593C17.048 17.2945 17.0004 17.3142 16.9507 17.3143H1.95068C1.90098 17.3142 1.85333 17.2945 1.81818 17.2593C1.78304 17.2242 1.76326 17.1765 1.76318 17.1268V11.8768C1.76318 11.7276 1.70392 11.5846 1.59843 11.4791C1.49294 11.3736 1.34987 11.3143 1.20068 11.3143C1.0515 11.3143 0.908425 11.3736 0.802936 11.4791C0.697447 11.5846 0.638184 11.7276 0.638184 11.8768V17.1268C0.638581 17.4748 0.776989 17.8084 1.02304 18.0545C1.2691 18.3005 1.60271 18.4389 1.95068 18.4393H16.9507C17.2987 18.4389 17.6323 18.3005 17.8783 18.0545C18.1244 17.8084 18.2628 17.4748 18.2632 17.1268V11.8768C18.2632 11.7276 18.2039 11.5846 18.0984 11.4791C17.9929 11.3736 17.8499 11.3143 17.7007 11.3143Z" fill="#3C3C43" fill-opacity="0.6"/>
</svg>
