<svg width="25" height="26" viewBox="0 0 25 26" fill="none" xmlns="http://www.w3.org/2000/svg">
<path d="M12.5 24.499H1.95833C1.70417 24.499 1.46041 24.3981 1.28069 24.2183C1.10097 24.0386 1 23.7949 1 23.5407V12.999C1 11.4888 1.29746 9.99339 1.87538 8.59815C2.45331 7.20291 3.30039 5.93516 4.36827 4.86729C5.43614 3.79942 6.70389 2.95233 8.09913 2.37441C9.49437 1.79648 10.9898 1.49902 12.5 1.49902H12.5C14.0102 1.49902 15.5056 1.79648 16.9009 2.37441C18.2961 2.95234 19.5639 3.79942 20.6317 4.8673C21.6996 5.93517 22.5467 7.20292 23.1246 8.59817C23.7025 9.99341 24 11.4888 24 12.999V12.999C24 16.049 22.7884 18.9741 20.6317 21.1308C18.4751 23.2874 15.55 24.499 12.5 24.499Z" stroke="#252B42" stroke-width="2" stroke-linecap="round" stroke-linejoin="round"/>
</svg>
